<svg width="32" height="32" viewBox="0 0 32 32" fill="none" xmlns="http://www.w3.org/2000/svg">
  <!-- Simplified HelpChain logo for favicon -->
  <rect x="0" y="0" width="32" height="32" fill="#487E92" rx="4"/>
  
  <!-- Simplified "H" shape based on the logo -->
  <path d="M8 6V16H10V6C10 5.45 10.45 5 11 5C11.55 5 12 5.45 12 6V7H14V6C14 4.34 12.66 3 11 3C9.34 3 8 4.34 8 6Z" fill="#D1A42E"/>
  
  <path d="M15 8H12V10H14.5C14.78 10 15 10.22 15 10.5C15 10.78 14.78 11 14.5 11H11V13H15C16.66 13 18 11.66 18 10.5C18 9.34 16.66 8 15 8Z" fill="#E0C864"/>
  
  <path d="M6 13H13V11H6.5C6.22 11 6 10.78 6 10.5C6 10.22 6.22 10 6.5 10H7V8H6C4.34 8 3 9.34 3 10.5C3 11.66 4.34 13 6 13Z" fill="#E0C864"/>
  
  <path d="M9 6V11H11V7C11 6.45 11.45 6 12 6C12.55 6 13 6.45 13 7V12H15V6C15 4.34 13.66 3 12 3C10.34 3 9 4.34 9 6Z" fill="#6EA1B2"/>
  
  <!-- Bottom half - mirrored -->
  <path d="M13 26V16H11V26C11 26.55 10.55 27 10 27C9.45 27 9 26.55 9 26V25H7V26C7 27.66 8.34 29 10 29C11.66 29 13 27.66 13 26Z" fill="#6EA1B2"/>
  
  <path d="M6 24H9V22H6.5C6.22 22 6 21.78 6 21.5C6 21.22 6.22 21 6.5 21H11V19H6C4.34 19 3 20.34 3 21.5C3 22.66 4.34 24 6 24Z" fill="#96BECA"/>
  
  <path d="M15 19H8V21H14.5C14.78 21 15 21.22 15 21.5C15 21.78 14.78 22 14.5 22H13V24H15C16.66 24 18 22.66 18 21.5C18 20.34 16.66 19 15 19Z" fill="#96BECA"/>
  
  <path d="M14 26V21H12V25C12 25.55 11.55 26 11 26C10.45 26 10 25.55 10 25V19H8V26C8 27.66 9.34 29 11 29C12.66 29 14 27.66 14 26Z" fill="#D1A42E"/>
  
  <!-- "C" for Chain -->
  <path d="M24 13C22.9 13 22 12.1 22 11C22 9.9 22.9 9 24 9C24.6 9 25.1 9.2 25.5 9.6L26.5 8.5C25.8 7.8 24.9 7.5 24 7.5C22.1 7.5 20.5 9.1 20.5 11C20.5 12.9 22.1 14.5 24 14.5C24.9 14.5 25.8 14.2 26.5 13.5L25.5 12.4C25.1 12.8 24.6 13 24 13Z" fill="#D1A42E"/>
  
  <path d="M24 24.5C22.1 24.5 20.5 22.9 20.5 21C20.5 19.1 22.1 17.5 24 17.5C24.9 17.5 25.8 17.8 26.5 18.5L25.5 19.6C25.1 19.2 24.6 19 24 19C22.9 19 22 19.9 22 21C22 22.1 22.9 23 24 23C24.6 23 25.1 22.8 25.5 22.4L26.5 23.5C25.8 24.2 24.9 24.5 24 24.5Z" fill="#487E92"/>
</svg> 